<?xml version="1.0" encoding="UTF-8" standalone="no"?><!DOCTYPE svg PUBLIC "-//W3C//DTD SVG 1.1//EN" "http://www.w3.org/Graphics/SVG/1.1/DTD/svg11.dtd"><svg width="100%" height="100%" viewBox="0 0 48 48" version="1.1" xmlns="http://www.w3.org/2000/svg" xmlns:xlink="http://www.w3.org/1999/xlink" xml:space="preserve" xmlns:serif="http://www.serif.com/" style="fill-rule:evenodd;clip-rule:evenodd;stroke-linejoin:round;stroke-miterlimit:1.41421;"><rect id="ad-compose-path-variation" x="0" y="0" width="48" height="48" style="fill:none;"/><path d="M10.393,34.266c0,5.667 6.423,10.267 14.335,10.267c7.911,0 14.334,-4.6 14.334,-10.267c-3.345,1.7 -8.617,3.08 -14.334,3.08c-5.718,0 -10.99,-1.38 -14.335,-3.08Zm18.651,-4.123l-9.794,0l0,-6.74l-6.411,2.083l-3.026,-9.315l6.41,-2.083l-3.962,-5.453l7.924,-5.757l3.962,5.453l3.961,-5.453l7.924,5.757l-3.962,5.453l6.411,2.083l-3.027,9.315l-6.41,-2.083l0,6.74Z" style="fill:url(#_Linear1);"/><defs><linearGradient id="_Linear1" x1="0" y1="0" x2="1" y2="0" gradientUnits="userSpaceOnUse" gradientTransform="matrix(1.79098e-15,41.6543,-29.249,2.55059e-15,24.4371,2.87844)"><stop offset="0" style="stop-color:#263cd9;stop-opacity:1"/><stop offset="1" style="stop-color:#e61a1a;stop-opacity:1"/></linearGradient></defs></svg>