<?xml version="1.0" encoding="UTF-8" standalone="no"?><!DOCTYPE svg PUBLIC "-//W3C//DTD SVG 1.1//EN" "http://www.w3.org/Graphics/SVG/1.1/DTD/svg11.dtd"><svg width="100%" height="100%" viewBox="0 0 48 48" version="1.1" xmlns="http://www.w3.org/2000/svg" xmlns:xlink="http://www.w3.org/1999/xlink" xml:space="preserve" xmlns:serif="http://www.serif.com/" style="fill-rule:evenodd;clip-rule:evenodd;stroke-linejoin:round;stroke-miterlimit:1.41421;"><rect id="ad-donut" x="0" y="0" width="48" height="48" style="fill:none;"/><clipPath id="_clip1"><path d="M24,5.897c9.991,0 18.103,8.112 18.103,18.103c0,9.991 -8.112,18.103 -18.103,18.103c-9.991,0 -18.103,-8.112 -18.103,-18.103c0,-9.991 8.112,-18.103 18.103,-18.103Zm0,9.052c4.996,0 9.051,4.055 9.051,9.051c0,4.996 -4.055,9.051 -9.051,9.051c-4.996,0 -9.051,-4.055 -9.051,-9.051c0,-4.996 4.055,-9.051 9.051,-9.051Z"/></clipPath><g clip-path="url(#_clip1)"><rect x="0" y="0" width="48" height="48" style="fill:url(#_Linear2);"/></g><defs><linearGradient id="_Linear2" x1="0" y1="0" x2="1" y2="0" gradientUnits="userSpaceOnUse" gradientTransform="matrix(2.93915e-15,48,-48,2.93915e-15,24,0)"><stop offset="0" style="stop-color:#1ae6c1;stop-opacity:1"/><stop offset="1" style="stop-color:#1a32e6;stop-opacity:1"/></linearGradient></defs></svg>