<svg width="48" height="48" viewBox="0 0 48 48" version="1.1" xmlns="http://www.w3.org/2000/svg" xmlns:xlink="http://www.w3.org/1999/xlink">
  <title>3</title>
  <desc>Created using Figma</desc>
  <g id="Canvas" transform="translate(-51 24)">
    <g id="3">
      <mask id="mask0_alpha" mask-type="alpha">
        <g id="Group">
          <g id="Rectangle">
            <use xlink:href="#path0_fill" transform="translate(59 8)" fill="#C4C4C4"/>
          </g>
          <g id="Rectangle">
            <use xlink:href="#path0_fill" transform="translate(59 -20)" fill="#C4C4C4"/>
          </g>
          <g id="Rectangle">
            <use xlink:href="#path0_fill" transform="translate(59 -6)" fill="#C4C4C4"/>
          </g>
        </g>
      </mask>
      <g id="Rectangle 2" mask="url(#mask0_alpha)">
        <use xlink:href="#path1_fill" transform="translate(51 -24)" fill="url(#paint3_linear)"/>
      </g>
    </g>
  </g>
  <defs>
    <linearGradient id="paint3_linear" x1="0" y1="0" x2="1" y2="0" gradientUnits="userSpaceOnUse" gradientTransform="matrix(2.93915e-15 48 -48 2.93915e-15 48 -2.93915e-15)">
      <stop offset="0" stop-color="#F2994A"/>
      <stop offset="1" stop-color="#F2C94C"/>
    </linearGradient>
    <path id="path0_fill" d="M 0 6C 0 2.68629 2.68629 0 6 0L 26 0C 29.3137 0 32 2.68629 32 6L 32 6C 32 9.31371 29.3137 12 26 12L 6 12C 2.68629 12 0 9.31371 0 6L 0 6Z"/>
    <path id="path1_fill" d="M 0 0L 48 0L 48 48L 0 48L 0 0Z"/>
  </defs>
</svg>
